<?xml version="1.0" encoding="utf-8"?>
<!-- Generator: Adobe Illustrator 24.1.0, SVG Export Plug-In . SVG Version: 6.00 Build 0)  -->
<svg version="1.2" baseProfile="tiny" id="Calque_1"
	 xmlns="http://www.w3.org/2000/svg" xmlns:xlink="http://www.w3.org/1999/xlink" x="0px" y="0px" viewBox="0 0 24 24"
	 xml:space="preserve">
<g>
	<path fill="#3D3D3B" d="M20.04,6.82l-5.76-4.03c-1.57-1.1-3.98-1.04-5.49,0.13c0,0,0,0,0,0L3.78,6.83c-1,0.78-1.79,2.38-1.79,3.64
		v6.9c0,2.55,2.07,4.63,4.62,4.63h10.78c2.55,0,4.62-2.07,4.62-4.62V10.6C22.01,9.25,21.14,7.59,20.04,6.82z M12.75,18
		c0,0.41-0.34,0.75-0.75,0.75s-0.75-0.34-0.75-0.75v-3c0-0.41,0.34-0.75,0.75-0.75s0.75,0.34,0.75,0.75V18z"/>
</g>
</svg>
