<?xml version="1.0" encoding="utf-8"?>
<!-- Generator: Adobe Illustrator 24.1.0, SVG Export Plug-In . SVG Version: 6.00 Build 0)  -->
<svg version="1.2" baseProfile="tiny" id="Calque_1"
	 xmlns="http://www.w3.org/2000/svg" xmlns:xlink="http://www.w3.org/1999/xlink" x="0px" y="0px" viewBox="0 0 24 24"
	 xml:space="preserve">
<g>
	<path fill="#3D3D3B" d="M18.67,2h-1.9c-2.18,0-3.33,1.15-3.33,3.33v1.9c0,2.18,1.15,3.33,3.33,3.33h1.9c2.18,0,3.33-1.15,3.33-3.33
		v-1.9C22,3.15,20.85,2,18.67,2z"/>
	<path fill="#3D3D3B" d="M7.24,13.43h-1.9C3.15,13.43,2,14.58,2,16.76v1.9C2,20.85,3.15,22,5.33,22h1.9c2.18,0,3.33-1.15,3.33-3.33
		v-1.9C10.57,14.58,9.42,13.43,7.24,13.43z"/>
	<circle fill="#3D3D3B" cx="6.29" cy="6.29" r="4.29"/>
	<circle fill="#3D3D3B" cx="17.71" cy="17.71" r="4.29"/>
</g>
</svg>
