<?xml version="1.0" encoding="utf-8"?>
<!-- Generator: Adobe Illustrator 24.1.0, SVG Export Plug-In . SVG Version: 6.00 Build 0)  -->
<svg version="1.2" baseProfile="tiny" id="Calque_1"
	 xmlns="http://www.w3.org/2000/svg" xmlns:xlink="http://www.w3.org/1999/xlink" x="0px" y="0px" viewBox="0 0 24 24"
	 xml:space="preserve">
<g>
	<path fill="#E94F1C" d="M16.8,2H14.2C11,2,9,4,9,7.2v4.05h6.25c0.41,0,0.75,0.34,0.75,0.75s-0.34,0.75-0.75,0.75H9v4.05
		C9,20,11,22,14.2,22h2.59c3.2,0,5.2-2,5.2-5.2V7.2C22,4,20,2,16.8,2z"/>
	<path fill="#E94F1C" d="M4.56,11.25l2.07-2.07c0.15-0.15,0.22-0.34,0.22-0.53S6.78,8.26,6.63,8.12c-0.29-0.29-0.77-0.29-1.06,0
		l-3.35,3.35c-0.29,0.29-0.29,0.77,0,1.06l3.35,3.35c0.29,0.29,0.77,0.29,1.06,0s0.29-0.77,0-1.06l-2.07-2.07H9v-1.5H4.56z"/>
</g>
</svg>
