<?xml version="1.0" encoding="utf-8"?>
<!-- Generator: Adobe Illustrator 24.1.0, SVG Export Plug-In . SVG Version: 6.00 Build 0)  -->
<svg version="1.2" baseProfile="tiny" id="Calque_1"
	 xmlns="http://www.w3.org/2000/svg" xmlns:xlink="http://www.w3.org/1999/xlink" x="0px" y="0px" viewBox="0 0 24 24"
	 xml:space="preserve">
<g>
	<path fill="#3D3D3B" d="M-16.52,2"/>
	<path fill="#3D3D3B" d="M-8.52,3"/>
	<path fill="#3D3D3B" d="M-4.56,3.96c-0.67-0.74-1.68-1.17-3.08-1.32V1.88c0-1.37-0.58-2.69-1.6-3.61
		c-1.03-0.94-2.37-1.38-3.76-1.25c-2.39,0.23-4.41,2.54-4.41,5.04v0.58c-1.4,0.15-2.41,0.58-3.08,1.32
		c-0.97,1.08-0.94,2.52-0.83,3.52l0.7,5.57c0.21,1.95,1,3.95,5.3,3.95h5.58c4.3,0,5.09-2,5.3-3.94l0.7-5.59
		C-3.62,6.48-3.6,5.04-4.56,3.96z M-12.87-1.59c1-0.09,1.95,0.22,2.69,0.89c0.73,0.66,1.14,1.6,1.14,2.58v0.7h-6.98V2.06
		C-16.01,0.28-14.54-1.43-12.87-1.59z M-16.1,8.15h-0.01c-0.55,0-1-0.45-1-1c0-0.55,0.45-1,1-1c0.56,0,1.01,0.45,1.01,1
		C-15.1,7.7-15.55,8.15-16.1,8.15z M-9.1,8.15h-0.01c-0.55,0-1-0.45-1-1c0-0.55,0.45-1,1-1c0.56,0,1.01,0.45,1.01,1
		C-8.1,7.7-8.55,8.15-9.1,8.15z"/>
</g>
<g>
	<path fill="#3D3D3B" d="M5,9"/>
	<path fill="#3D3D3B" d="M18.07,8.51L9.51,4.23C3.76,1.35,1.4,3.71,4.28,9.46l0.87,1.74c0.25,0.51,0.25,1.1,0,1.61l-0.87,1.73
		c-2.88,5.75-0.53,8.11,5.23,5.23l8.56-4.28C21.91,13.57,21.91,10.43,18.07,8.51z M14.84,12.75h-5.4c-0.41,0-0.75-0.34-0.75-0.75
		s0.34-0.75,0.75-0.75h5.4c0.41,0,0.75,0.34,0.75,0.75S15.25,12.75,14.84,12.75z"/>
</g>
</svg>
