<?xml version="1.0" encoding="utf-8"?>
<!-- Generator: Adobe Illustrator 24.1.0, SVG Export Plug-In . SVG Version: 6.00 Build 0)  -->
<svg version="1.2" baseProfile="tiny" id="Calque_1"
	 xmlns="http://www.w3.org/2000/svg" xmlns:xlink="http://www.w3.org/1999/xlink" x="0px" y="0px" viewBox="0 0 24 24"
	 xml:space="preserve">
<g>
	<path fill="#3D3D3B" d="M-16.52,2"/>
	<path fill="#3D3D3B" d="M-8.52,3"/>
	<path fill="#3D3D3B" d="M-4.56,3.96c-0.67-0.74-1.68-1.17-3.08-1.32V1.88c0-1.37-0.58-2.69-1.6-3.61
		c-1.03-0.94-2.37-1.38-3.76-1.25c-2.39,0.23-4.41,2.54-4.41,5.04v0.58c-1.4,0.15-2.41,0.58-3.08,1.32
		c-0.97,1.08-0.94,2.52-0.83,3.52l0.7,5.57c0.21,1.95,1,3.95,5.3,3.95h5.58c4.3,0,5.09-2,5.3-3.94l0.7-5.59
		C-3.62,6.48-3.6,5.04-4.56,3.96z M-12.87-1.59c1-0.09,1.95,0.22,2.69,0.89c0.73,0.66,1.14,1.6,1.14,2.58v0.7h-6.98V2.06
		C-16.01,0.28-14.54-1.43-12.87-1.59z M-16.1,8.15h-0.01c-0.55,0-1-0.45-1-1c0-0.55,0.45-1,1-1c0.56,0,1.01,0.45,1.01,1
		C-15.1,7.7-15.55,8.15-16.1,8.15z M-9.1,8.15h-0.01c-0.55,0-1-0.45-1-1c0-0.55,0.45-1,1-1c0.56,0,1.01,0.45,1.01,1
		C-8.1,7.7-8.55,8.15-9.1,8.15z"/>
</g>
<g>
	<path fill="#3D3D3B" d="M19.7,20.83"/>
	<path fill="#3D3D3B" d="M13.76,14.39"/>
	<path fill="#3D3D3B" d="M2.58,19.01l-0.02,0.02c-0.27-0.59-0.44-1.26-0.51-2C2.12,17.76,2.31,18.42,2.58,19.01z"/>
	<circle fill="#3D3D3B" cx="9" cy="8" r="2.38"/>
	<path fill="#3D3D3B" d="M16.19,2H7.81C4.17,2,2,4.17,2,7.81v8.38c0,1.09,0.19,2.04,0.56,2.84C3.42,20.93,5.26,22,7.81,22h8.38
		c3.64,0,5.81-2.17,5.81-5.81V13.9V7.81C22,4.17,19.83,2,16.19,2z M20.37,12.5c-0.78-0.67-2.04-0.67-2.82,0l-4.16,3.57
		c-0.78,0.67-2.04,0.67-2.82,0l-0.34-0.28c-0.71-0.62-1.84-0.68-2.64-0.14l-3.74,2.51C3.63,17.6,3.5,16.95,3.5,16.19V7.81
		c0-2.82,1.49-4.31,4.31-4.31h8.38c2.82,0,4.31,1.49,4.31,4.31v4.8L20.37,12.5z"/>
</g>
</svg>
