<?xml version="1.0" encoding="utf-8"?>
<!-- Generator: Adobe Illustrator 24.1.0, SVG Export Plug-In . SVG Version: 6.00 Build 0)  -->
<svg version="1.2" baseProfile="tiny" id="Calque_1"
	 xmlns="http://www.w3.org/2000/svg" xmlns:xlink="http://www.w3.org/1999/xlink" x="0px" y="0px" viewBox="0 0 24 24"
	 xml:space="preserve">
<g>
	<path fill="#3D3D3B" d="M17,2H7C4.24,2,2,4.23,2,6.98l0,5.98l0,1c0,2.75,2.24,4.98,5,4.98h1.5c0.27,0,0.63,0.18,0.8,0.4l1.5,1.99
		c0.66,0.88,1.74,0.88,2.4,0l1.5-1.99c0.19-0.25,0.49-0.4,0.8-0.4H17c2.76,0,5-2.23,5-4.98l0-6.98C22,4.23,19.76,2,17,2z M8,12L8,12
		C7.44,12,7,11.55,7,11s0.45-1,1-1s1,0.45,1,1S8.56,12,8,12z M12,12L12,12C11.44,12,11,11.55,11,11s0.45-1,1-1s1,0.45,1,1
		S12.56,12,12,12z M16,12L16,12C15.44,12,15,11.55,15,11s0.45-1,1-1s1,0.45,1,1S16.56,12,16,12z"/>
</g>
</svg>
