<?xml version="1.0" encoding="utf-8"?>
<!-- Generator: Adobe Illustrator 24.1.0, SVG Export Plug-In . SVG Version: 6.00 Build 0)  -->
<svg version="1.2" baseProfile="tiny" id="Calque_1"
	 xmlns="http://www.w3.org/2000/svg" xmlns:xlink="http://www.w3.org/1999/xlink" x="0px" y="0px" viewBox="0 0 24 24"
	 xml:space="preserve">
<g>
	<path fill="#3D3D3B" d="M20.21,13.99l-1.13-1.88c-0.25-0.41-0.47-1.2-0.47-1.68V8.57c0-3.63-2.95-6.58-6.57-6.58
		c-3.63,0-6.58,2.95-6.58,6.58v1.86c0,0.48-0.22,1.27-0.46,1.68l-1.13,1.88c-0.43,0.73-0.53,1.56-0.26,2.28
		c0.27,0.73,0.88,1.31,1.68,1.57c1.08,0.36,2.17,0.62,3.28,0.81c0.11,0.02,0.22,0.03,0.33,0.05c0.14,0.02,0.29,0.04,0.44,0.06
		c0.26,0.04,0.52,0.07,0.79,0.09c0.63,0.06,1.27,0.09,1.91,0.09c0.63,0,1.26-0.03,1.88-0.09c0.23-0.02,0.46-0.04,0.68-0.07
		c0.18-0.02,0.36-0.04,0.54-0.07c0.11-0.01,0.22-0.03,0.33-0.05c1.12-0.18,2.23-0.46,3.31-0.82c0.77-0.26,1.36-0.84,1.64-1.58
		C20.7,15.51,20.62,14.68,20.21,13.99z M12.78,9.93c0,0.42-0.34,0.76-0.76,0.76s-0.76-0.34-0.76-0.76v-3.1
		c0-0.42,0.34-0.76,0.76-0.76s0.76,0.34,0.76,0.76V9.93z"/>
	<path fill="#3D3D3B" d="M14.85,19.94c-0.42,1.16-1.52,1.99-2.83,1.99c-0.79,0-1.57-0.32-2.12-0.89c-0.32-0.3-0.56-0.7-0.7-1.11
		c0.13,0.02,0.26,0.03,0.4,0.05c0.23,0.03,0.47,0.06,0.71,0.08c0.57,0.05,1.15,0.08,1.73,0.08c0.57,0,1.14-0.03,1.7-0.08
		c0.21-0.02,0.42-0.03,0.62-0.06C14.53,19.99,14.69,19.97,14.85,19.94z"/>
</g>
</svg>
