<?xml version="1.0" encoding="utf-8"?>
<!-- Generator: Adobe Illustrator 24.1.0, SVG Export Plug-In . SVG Version: 6.00 Build 0)  -->
<svg version="1.2" baseProfile="tiny" id="Calque_1"
	 xmlns="http://www.w3.org/2000/svg" xmlns:xlink="http://www.w3.org/1999/xlink" x="0px" y="0px" viewBox="0 0 24 24"
	 xml:space="preserve">
<g>
	<path fill="#3D3D3B" d="M8,7"/>
	<path fill="#3D3D3B" d="M16,8"/>
	<path fill="#3D3D3B" d="M19.96,8.96c-0.67-0.74-1.68-1.17-3.08-1.32V6.88c0-1.37-0.58-2.69-1.6-3.61
		c-1.03-0.94-2.37-1.38-3.76-1.25C9.13,2.25,7.12,4.56,7.12,7.06v0.58c-1.4,0.15-2.41,0.58-3.08,1.32
		c-0.97,1.08-0.94,2.52-0.83,3.52l0.7,5.57C4.12,20,4.91,22,9.21,22h5.58c4.3,0,5.09-2,5.3-3.94l0.7-5.59
		C20.9,11.48,20.92,10.04,19.96,8.96z M11.66,3.41c1-0.09,1.95,0.22,2.69,0.89c0.73,0.66,1.14,1.6,1.14,2.58v0.7H8.51V7.06
		C8.51,5.28,9.98,3.57,11.66,3.41z M8.42,13.15H8.41c-0.55,0-1-0.45-1-1c0-0.55,0.45-1,1-1c0.56,0,1.01,0.45,1.01,1
		C9.42,12.7,8.97,13.15,8.42,13.15z M15.42,13.15h-0.01c-0.55,0-1-0.45-1-1c0-0.55,0.45-1,1-1c0.56,0,1.01,0.45,1.01,1
		C16.42,12.7,15.97,13.15,15.42,13.15z"/>
</g>
</svg>
