<?xml version="1.0" encoding="utf-8"?>
<!-- Generator: Adobe Illustrator 24.1.0, SVG Export Plug-In . SVG Version: 6.00 Build 0)  -->
<svg version="1.2" baseProfile="tiny" id="Calque_1"
	 xmlns="http://www.w3.org/2000/svg" xmlns:xlink="http://www.w3.org/1999/xlink" x="0px" y="0px" viewBox="0 0 24 24"
	 xml:space="preserve">
<g>
	<path fill="#3D3D3B" d="M20.1,9.22L20.1,9.22c-1.81,0-2.55-1.28-1.65-2.85l0,0c0.52-0.91,0.21-2.07-0.7-2.59l-1.73-0.99
		c-0.79-0.47-1.81-0.19-2.28,0.6l-0.11,0.19c-0.9,1.57-2.38,1.57-3.29,0l-0.11-0.19C9.78,2.6,8.76,2.32,7.97,2.79L6.24,3.78
		C5.33,4.3,5.02,5.47,5.54,6.38l0,0C6.45,7.94,5.71,9.22,3.9,9.22h0c-1.04,0-1.9,0.85-1.9,1.9v1.76c0,1.04,0.85,1.9,1.9,1.9h0
		c1.81,0,2.55,1.28,1.64,2.85l0,0c-0.52,0.91-0.21,2.07,0.7,2.59l1.73,0.99c0.79,0.47,1.81,0.19,2.28-0.6l0.11-0.19
		c0.9-1.57,2.38-1.57,3.29,0l0.11,0.19c0.47,0.79,1.49,1.07,2.28,0.6l1.73-0.99c0.91-0.52,1.22-1.69,0.7-2.59l0,0
		c-0.91-1.57-0.17-2.85,1.64-2.85h0c1.04,0,1.9-0.85,1.9-1.9v-1.76C22,10.08,21.15,9.22,20.1,9.22z M12,15.25
		c-1.79,0-3.25-1.46-3.25-3.25S10.21,8.75,12,8.75s3.25,1.46,3.25,3.25S13.79,15.25,12,15.25z"/>
</g>
</svg>
