<?xml version="1.0" encoding="utf-8"?>
<!-- Generator: Adobe Illustrator 24.1.0, SVG Export Plug-In . SVG Version: 6.00 Build 0)  -->
<svg version="1.2" baseProfile="tiny" id="Calque_1"
	 xmlns="http://www.w3.org/2000/svg" xmlns:xlink="http://www.w3.org/1999/xlink" x="0px" y="0px" viewBox="0 0 24 24"
	 xml:space="preserve">
<g>
	<path fill="#3D3D3B" d="M-16.52,2"/>
	<path fill="#3D3D3B" d="M-8.52,3"/>
	<path fill="#3D3D3B" d="M-4.56,3.96c-0.67-0.74-1.68-1.17-3.08-1.32V1.88c0-1.37-0.58-2.69-1.6-3.61
		c-1.03-0.94-2.37-1.38-3.76-1.25c-2.39,0.23-4.41,2.54-4.41,5.04v0.58c-1.4,0.15-2.41,0.58-3.08,1.32
		c-0.97,1.08-0.94,2.52-0.83,3.52l0.7,5.57c0.21,1.95,1,3.95,5.3,3.95h5.58c4.3,0,5.09-2,5.3-3.94l0.7-5.59
		C-3.62,6.48-3.6,5.04-4.56,3.96z M-12.87-1.59c1-0.09,1.95,0.22,2.69,0.89c0.73,0.66,1.14,1.6,1.14,2.58v0.7h-6.98V2.06
		C-16.01,0.28-14.54-1.43-12.87-1.59z M-16.1,8.15h-0.01c-0.55,0-1-0.45-1-1c0-0.55,0.45-1,1-1c0.56,0,1.01,0.45,1.01,1
		C-15.1,7.7-15.55,8.15-16.1,8.15z M-9.1,8.15h-0.01c-0.55,0-1-0.45-1-1c0-0.55,0.45-1,1-1c0.56,0,1.01,0.45,1.01,1
		C-8.1,7.7-8.55,8.15-9.1,8.15z"/>
</g>
<g>
	<path fill="#3D3D3B" d="M20,9.5"/>
	<path fill="#95C121" d="M19.97,1.75h-2.94C15.76,1.75,15,2.51,15,3.78v2.94c0,1.27,0.76,2.03,2.03,2.03h2.94
		c1.27,0,2.03-0.76,2.03-2.03V3.78C22,2.51,21.24,1.75,19.97,1.75z M20.19,5.06c-0.12,0.12-0.28,0.18-0.44,0.18
		c-0.16,0-0.32-0.06-0.44-0.18l-0.18-0.18v2.24c0,0.35-0.28,0.63-0.63,0.63s-0.63-0.28-0.63-0.63V4.88l-0.18,0.18
		c-0.24,0.24-0.64,0.24-0.88,0s-0.24-0.64,0-0.88l1.25-1.25c0.05-0.05,0.12-0.09,0.19-0.12c0.02-0.01,0.04-0.01,0.06-0.02
		c0.05-0.02,0.1-0.03,0.16-0.03c0.02,0,0.04,0,0.06,0c0.07,0,0.13,0.01,0.2,0.04c0.01,0,0.01,0,0.02,0c0,0,0,0,0,0
		c0.07,0.03,0.13,0.07,0.18,0.12c0.01,0.01,0.01,0.01,0.02,0.01l1.25,1.25C20.44,4.42,20.44,4.82,20.19,5.06z"/>
	<path fill="#3D3D3B" d="M2,11.46v5c0,2.29,1.85,4.14,4.14,4.14h11.71c2.29,0,4.15-1.86,4.15-4.15v-4.99c0-0.67-0.54-1.21-1.21-1.21
		H3.21C2.54,10.25,2,10.79,2,11.46z M8,17.25H6c-0.41,0-0.75-0.34-0.75-0.75S5.59,15.75,6,15.75h2c0.41,0,0.75,0.34,0.75,0.75
		S8.41,17.25,8,17.25z M14.5,17.25h-4c-0.41,0-0.75-0.34-0.75-0.75s0.34-0.75,0.75-0.75h4c0.41,0,0.75,0.34,0.75,0.75
		S14.91,17.25,14.5,17.25z"/>
	<path fill="#3D3D3B" d="M13.5,4.61v2.93c0,0.67-0.54,1.21-1.21,1.21l-9.08,0C2.53,8.75,2,8.19,2,7.52
		c0.01-1.13,0.46-2.16,1.21-2.91C3.96,3.86,5,3.4,6.14,3.4h6.15C12.96,3.4,13.5,3.94,13.5,4.61z"/>
</g>
</svg>
