<?xml version="1.0" encoding="utf-8"?>
<!-- Generator: Adobe Illustrator 24.1.0, SVG Export Plug-In . SVG Version: 6.00 Build 0)  -->
<svg version="1.2" baseProfile="tiny" id="Calque_1"
	 xmlns="http://www.w3.org/2000/svg" xmlns:xlink="http://www.w3.org/1999/xlink" x="0px" y="0px" viewBox="0 0 24 24"
	 xml:space="preserve">
<g>
	<path fill="#E94F1C" d="M12,2C6.49,2,2,6.49,2,12s4.49,10,10,10s10-4.49,10-10S17.51,2,12,2z M15.36,14.3
		c0.29,0.29,0.29,0.77,0,1.06c-0.15,0.15-0.34,0.22-0.53,0.22s-0.38-0.07-0.53-0.22l-2.3-2.3l-2.3,2.3
		c-0.15,0.15-0.34,0.22-0.53,0.22s-0.38-0.07-0.53-0.22c-0.29-0.29-0.29-0.77,0-1.06l2.3-2.3l-2.3-2.3c-0.29-0.29-0.29-0.77,0-1.06
		s0.77-0.29,1.06,0l2.3,2.3l2.3-2.3c0.29-0.29,0.77-0.29,1.06,0s0.29,0.77,0,1.06l-2.3,2.3L15.36,14.3z"/>
</g>
</svg>
