<?xml version="1.0" encoding="utf-8"?>
<!-- Generator: Adobe Illustrator 24.1.0, SVG Export Plug-In . SVG Version: 6.00 Build 0)  -->
<svg version="1.2" baseProfile="tiny" id="Calque_1"
	 xmlns="http://www.w3.org/2000/svg" xmlns:xlink="http://www.w3.org/1999/xlink" x="0px" y="0px" viewBox="0 0 24 24"
	 xml:space="preserve">
<g>
	<path fill="#3D3D3B" d="M12,2C9.38,2,7.25,4.13,7.25,6.75c0,2.57,2.01,4.65,4.63,4.74c0.08-0.01,0.16-0.01,0.22,0
		c0.02,0,0.03,0,0.05,0c0.01,0,0.01,0,0.02,0c2.56-0.09,4.57-2.17,4.58-4.74C16.75,4.13,14.62,2,12,2z"/>
	<path fill="#3D3D3B" d="M17.08,14.15c-2.79-1.86-7.34-1.86-10.15,0c0,0,0,0,0,0C5.66,15,4.96,16.15,4.96,17.38
		c0,1.23,0.7,2.37,1.96,3.21C8.32,21.53,10.16,22,12,22s3.68-0.47,5.08-1.41c1.26-0.85,1.96-1.99,1.96-3.23
		C19.03,16.13,18.34,14.99,17.08,14.15z"/>
</g>
</svg>
